<svg 
 xmlns="http://www.w3.org/2000/svg"
 xmlns:xlink="http://www.w3.org/1999/xlink"
 width="453px" height="79px">
<path fill-rule="evenodd"  fill="rgb(255, 255, 255)"
 d="M451.647,6.026 C450.600,7.426 448.588,12.026 445.547,19.627 C442.589,27.327 436.819,34.528 428.337,41.228 C424.078,52.329 421.879,60.829 421.903,66.930 C421.910,73.130 421.510,76.530 420.886,77.230 C420.180,77.830 419.428,78.130 418.580,77.830 C417.716,77.630 417.545,74.630 417.732,69.030 C417.820,63.429 419.520,54.929 422.831,43.528 C418.683,44.928 414.495,43.728 410.300,39.728 C407.805,35.728 406.781,31.328 407.546,26.427 C408.292,21.627 408.857,18.427 409.357,16.727 C409.739,15.127 410.445,14.526 411.427,14.626 C412.292,14.827 412.739,15.127 412.669,15.527 C412.580,16.027 412.363,19.527 412.099,26.127 C411.852,32.628 412.747,36.628 415.182,38.128 C417.418,39.628 420.818,39.628 425.348,38.328 C425.754,36.028 426.465,34.828 427.618,34.528 C428.671,34.228 429.318,34.528 429.895,35.228 C437.918,27.727 443.000,19.327 445.358,9.926 C444.476,8.126 444.405,6.826 445.246,6.026 C446.105,5.126 447.346,4.326 449.287,3.526 C451.129,2.726 452.246,2.626 452.676,3.026 C453.088,3.526 452.711,4.526 451.647,6.026 ZM388.140,73.530 C387.558,75.130 386.599,76.030 385.264,76.230 C384.028,76.430 383.652,74.030 384.081,69.330 C384.427,64.530 384.762,57.529 385.067,48.429 C378.390,51.129 370.102,55.029 360.184,60.229 C357.932,65.630 356.861,69.430 356.991,71.530 C357.120,73.630 356.785,75.530 355.785,77.230 C354.803,78.830 353.891,78.330 353.015,75.930 C352.055,73.430 352.326,69.630 353.790,64.730 C359.606,45.928 368.452,25.827 380.645,4.326 C381.545,2.626 382.633,2.126 384.028,2.726 C385.304,3.426 386.193,4.626 386.710,6.226 C388.394,23.327 389.149,38.328 389.020,51.529 C388.992,64.730 388.705,72.030 388.140,73.530 ZM382.710,9.626 C373.494,25.027 366.630,40.128 362.101,55.029 C370.225,50.929 377.743,47.428 384.672,44.428 C384.783,33.028 384.229,21.427 382.710,9.626 ZM329.469,70.530 C323.533,72.430 317.851,74.030 312.468,75.630 C306.968,77.330 303.944,78.030 303.444,78.030 C302.944,78.030 302.479,77.830 302.250,77.430 C302.020,77.030 302.820,70.230 304.813,57.229 C306.788,44.328 308.970,32.528 311.304,22.127 C313.656,11.626 314.944,6.026 315.268,5.326 C315.591,4.626 316.362,4.226 317.497,4.026 C318.515,3.926 319.180,4.126 319.356,4.826 C319.533,5.526 318.345,11.126 315.658,21.827 C312.888,32.428 310.154,49.629 307.391,73.230 C318.168,70.530 328.368,67.130 338.210,62.929 C339.145,62.729 339.674,63.129 339.780,64.230 C339.904,65.230 339.645,66.130 339.122,66.830 C338.498,67.530 335.386,68.730 329.469,70.530 ZM260.612,47.028 C258.584,56.829 257.596,64.130 257.667,68.830 C257.738,73.530 257.462,76.230 256.938,76.930 C256.415,77.630 255.844,78.030 255.127,78.130 C254.491,78.330 253.762,77.930 253.003,77.130 C252.262,76.230 253.825,62.829 257.794,36.928 C262.798,15.927 265.385,5.226 265.709,4.526 C266.032,3.826 266.903,3.426 268.321,3.326 C269.738,3.226 270.180,4.126 269.627,6.126 C269.092,8.026 268.192,11.426 267.028,16.327 C274.533,7.226 282.210,2.826 290.040,3.226 C291.240,3.226 292.352,3.726 293.193,4.626 C294.134,5.526 294.982,9.226 295.871,15.527 C296.724,22.027 294.036,29.327 287.972,37.628 C281.908,45.928 272.760,49.029 260.612,47.028 ZM290.770,12.126 C289.346,7.726 286.775,6.426 282.893,8.026 C278.993,9.726 276.022,11.826 274.146,14.526 C266.381,22.827 262.241,32.128 261.371,42.728 C266.783,44.928 272.254,44.528 277.666,41.628 C283.078,38.728 286.972,34.228 289.265,28.027 C291.641,21.927 292.076,16.627 290.770,12.126 ZM181.704,68.630 C175.474,71.630 168.851,74.030 162.197,76.030 C155.444,78.030 151.821,78.730 151.344,78.030 C150.850,77.430 151.149,72.330 152.060,62.629 C152.971,52.929 157.229,38.428 164.751,19.027 C160.557,20.127 158.875,20.027 159.586,18.827 C160.316,17.527 162.969,15.527 167.645,12.826 C172.304,10.226 177.198,7.426 182.357,4.826 C187.516,2.226 190.392,1.226 191.069,1.926 C191.746,2.626 191.957,3.126 191.705,3.426 C191.352,3.726 190.546,4.326 189.122,5.026 C187.799,5.726 184.952,7.126 180.863,9.326 C176.793,11.426 173.222,13.526 170.069,15.527 C167.052,22.427 163.694,31.828 160.294,43.728 C169.736,39.528 176.236,36.128 180.024,33.928 C183.812,31.728 186.007,30.627 186.707,30.627 C187.407,30.627 187.566,31.428 187.319,32.828 C187.054,34.328 184.754,36.028 180.501,38.028 C176.230,40.128 169.066,43.328 159.254,47.929 C156.554,56.429 155.320,65.130 155.467,73.930 C167.903,70.330 177.086,67.030 183.015,64.030 C188.962,60.929 192.121,60.029 192.463,60.929 C192.786,61.929 192.645,62.729 192.057,63.229 C191.451,63.829 188.051,65.530 181.704,68.630 ZM139.418,29.427 C134.172,37.628 127.407,45.928 119.225,54.329 C125.679,59.129 130.897,62.429 134.727,64.530 C138.575,66.530 140.093,68.130 139.599,69.230 C139.222,70.230 138.263,71.130 136.875,71.630 C135.487,72.130 133.628,71.330 131.316,69.130 C129.121,66.830 126.474,64.830 123.526,62.829 C120.461,60.929 117.443,59.329 114.508,57.829 C112.631,58.829 110.890,59.629 109.002,60.129 C108.485,65.330 108.379,69.330 108.820,71.930 C109.262,74.530 108.927,76.430 107.968,77.330 C107.009,78.230 106.009,78.230 105.085,77.230 C104.162,76.230 103.732,74.130 103.879,71.030 C104.008,68.030 104.590,61.329 105.654,51.329 C106.735,41.228 108.458,32.028 110.957,23.527 C113.439,15.127 114.633,10.626 114.639,10.026 C114.527,9.526 115.015,9.026 115.968,8.726 C116.821,8.426 117.521,8.426 117.968,8.726 C118.415,9.026 118.539,10.026 118.474,11.526 C118.375,13.226 117.504,17.027 115.911,23.227 C125.045,11.126 135.198,4.026 146.269,1.926 C149.252,2.026 150.311,4.526 149.129,9.526 C147.929,14.626 144.665,21.227 139.418,29.427 ZM139.193,8.026 C134.928,9.526 130.028,12.926 124.611,18.127 C115.176,28.527 110.306,40.828 109.784,55.129 C114.984,53.429 121.172,47.829 128.301,38.028 C135.530,28.227 140.082,21.127 141.959,16.727 C143.835,12.326 144.946,9.426 145.211,7.926 C145.440,6.626 143.440,6.626 139.193,8.026 ZM66.080,77.830 C58.980,79.530 54.638,75.230 52.737,65.030 C50.854,54.729 52.794,43.728 58.593,31.828 C64.310,19.827 68.780,12.626 72.122,10.126 C75.380,7.526 79.669,7.026 84.969,8.726 C97.306,17.027 101.702,29.527 98.238,46.328 C92.539,61.629 81.769,72.230 66.080,77.830 ZM81.181,12.626 C78.575,11.526 75.716,12.426 73.004,15.327 C71.740,16.827 70.975,18.327 70.728,19.727 C70.446,21.327 69.334,22.527 67.475,23.427 C57.853,37.728 54.624,52.629 57.426,67.930 C59.356,73.430 62.721,75.330 67.856,73.430 C80.521,68.530 89.327,59.429 94.438,46.328 C97.519,31.128 93.112,19.827 81.181,12.626 ZM47.213,31.728 C45.461,43.928 43.739,58.229 42.111,74.830 C42.299,76.030 41.941,76.930 41.135,77.530 C40.329,78.130 39.493,78.330 38.829,78.130 C38.064,77.930 37.758,76.830 37.828,74.730 C37.781,72.730 37.846,71.230 38.004,70.330 C38.163,69.430 38.757,64.930 39.756,56.429 C40.738,48.029 42.566,34.828 45.259,16.727 C41.730,21.427 38.406,25.527 35.306,28.927 C32.189,32.428 29.483,34.728 27.407,35.728 C25.130,36.728 23.089,35.828 20.900,32.928 C18.794,30.127 16.393,25.027 13.463,17.827 C8.470,35.928 6.001,49.929 5.919,60.029 C5.855,70.030 5.068,75.630 4.109,76.530 C3.050,77.430 2.168,77.330 1.462,76.230 C0.856,75.130 0.620,73.630 0.738,71.830 C0.773,69.930 1.160,64.330 1.836,54.829 C2.412,45.328 4.070,35.928 6.793,26.727 C9.416,17.527 11.133,12.326 11.945,11.126 C12.621,10.126 13.721,10.126 15.027,11.226 C16.198,12.526 17.510,14.727 18.746,17.927 C19.781,21.127 22.252,25.827 25.977,31.928 C28.618,31.128 32.236,27.627 36.929,21.427 C41.606,15.327 44.735,10.626 46.352,7.126 C48.052,3.726 49.087,1.826 49.458,1.426 C49.811,1.126 50.664,0.826 51.799,0.626 C52.934,0.426 53.681,0.726 53.958,1.426 C54.135,2.126 53.547,4.326 52.011,7.926 C50.476,11.526 48.883,19.427 47.213,31.728 Z"/>
</svg>