<svg 
 xmlns="http://www.w3.org/2000/svg"
 xmlns:xlink="http://www.w3.org/1999/xlink"
 width="663px" height="176px">
<path fill-rule="evenodd"  fill="rgb(254, 254, 254)"
 d="M648.410,133.428 C648.410,106.678 648.410,79.929 648.410,53.180 C653.097,50.865 657.785,48.378 662.472,45.711 C662.472,76.688 662.472,107.664 662.472,138.641 C657.785,136.779 653.097,135.044 648.410,133.428 ZM618.234,124.631 C605.637,112.495 593.039,104.514 580.441,98.164 C576.096,100.023 571.750,101.706 567.404,103.285 C567.404,107.665 567.404,112.045 567.404,116.424 C562.717,116.013 558.029,115.690 553.342,115.450 C553.342,103.279 553.342,91.108 553.342,78.937 C558.029,78.594 562.717,78.131 567.404,77.541 C567.404,83.951 567.404,90.360 567.404,96.769 C583.200,90.022 598.996,81.476 614.792,66.939 C620.456,65.082 626.120,63.001 631.784,60.682 C617.795,76.336 603.805,86.307 589.816,93.756 C604.904,101.403 619.992,111.687 635.080,129.152 C629.465,127.483 623.849,125.980 618.234,124.631 ZM496.139,116.790 C494.894,116.903 493.649,117.022 492.404,117.145 C480.733,118.142 471.432,118.108 464.499,116.073 C457.565,114.080 454.049,110.253 453.952,105.058 C453.952,93.707 453.952,82.357 453.952,71.006 C458.591,71.958 463.229,72.846 467.868,73.664 C467.868,83.927 467.868,94.191 467.868,104.454 C467.868,107.753 469.992,110.212 474.240,111.650 C478.488,113.106 484.542,113.407 492.404,112.905 C500.362,112.398 506.454,111.390 510.678,109.819 C514.901,108.245 517.014,106.224 517.014,103.629 C517.014,95.530 517.014,87.431 517.014,79.332 C521.725,79.557 526.437,79.681 531.149,79.697 C531.149,87.680 531.149,95.663 531.149,103.647 C531.100,106.978 527.938,109.661 521.664,111.896 C515.390,114.136 506.881,115.670 496.139,116.790 ZM360.202,129.617 C379.684,101.576 399.167,82.273 418.649,69.572 C399.484,65.433 380.319,60.671 361.154,55.720 C361.154,52.379 361.154,49.037 361.154,45.696 C385.934,53.533 410.715,60.982 435.495,66.899 C435.495,68.726 435.495,70.553 435.495,72.380 C415.939,83.526 396.384,100.496 376.828,126.108 C397.165,122.887 417.502,119.884 437.839,117.425 C437.839,119.438 437.839,121.452 437.839,123.465 C411.960,127.707 386.081,133.142 360.202,138.861 C360.202,135.780 360.202,132.699 360.202,129.617 ZM309.079,151.768 C307.834,152.106 306.589,152.444 305.344,152.782 C293.673,155.452 284.371,153.713 277.438,146.715 C270.504,139.765 266.989,128.424 266.891,113.631 C266.891,81.203 266.891,48.775 266.891,16.347 C271.530,17.654 276.169,18.998 280.807,20.372 C280.807,51.061 280.807,81.751 280.807,112.440 C280.807,122.287 282.931,129.786 287.180,134.533 C291.428,139.305 297.481,140.837 305.344,139.496 C313.302,138.138 319.393,134.692 323.618,129.600 C327.840,124.480 329.953,118.157 329.953,110.217 C329.953,85.381 329.953,60.545 329.953,35.709 C334.665,37.222 339.377,38.739 344.089,40.252 C344.089,63.415 344.089,86.578 344.089,109.742 C344.039,119.365 340.877,127.501 334.604,135.065 C328.329,142.587 319.820,148.419 309.079,151.768 ZM215.439,75.569 C224.301,79.871 231.234,84.290 236.240,88.841 C241.244,93.397 244.955,98.473 247.372,104.140 C249.789,109.814 250.998,116.374 250.998,124.001 C250.998,136.146 247.629,146.218 240.890,154.764 C234.152,163.270 225.143,168.784 213.864,170.403 C206.540,171.448 199.703,170.116 193.356,166.246 C187.008,162.381 182.114,156.482 178.671,148.695 C175.229,140.909 173.508,131.844 173.508,121.663 C178.220,121.565 182.931,121.449 187.643,121.315 C187.643,131.724 190.024,139.867 194.785,145.503 C199.545,151.147 205.905,153.495 213.864,152.644 C221.286,151.850 226.974,148.848 230.930,143.932 C234.885,139.003 236.862,132.804 236.862,125.160 C236.862,117.517 235.031,111.693 231.369,107.510 C227.707,103.336 221.066,99.133 211.447,94.701 C199.386,89.185 190.610,82.118 185.117,73.742 C179.623,65.368 176.877,55.013 176.877,42.866 C176.877,29.133 180.233,17.953 186.948,9.884 C193.661,1.808 202.389,-1.130 213.132,1.036 C220.456,2.504 226.986,6.162 232.724,11.624 C238.461,17.096 242.905,23.740 246.054,31.462 C249.203,39.193 250.778,47.087 250.778,55.406 C246.066,54.780 241.354,54.178 236.642,53.604 C236.642,44.138 234.592,36.398 230.490,30.178 C226.389,23.978 220.602,20.057 213.132,18.821 C206.198,17.677 200.790,19.300 196.909,23.698 C193.027,28.090 191.086,34.743 191.086,43.468 C191.086,50.468 192.928,56.524 196.616,61.543 C200.302,66.565 206.576,71.272 215.439,75.569 ZM140.325,166.242 C134.238,172.720 127.135,175.842 119.020,175.420 C111.087,175.015 104.054,171.163 97.922,164.261 C91.788,157.355 87.027,147.959 83.637,136.307 C80.248,124.640 78.507,111.563 78.415,96.737 C78.415,92.957 78.415,89.177 78.415,85.397 C78.415,70.284 80.098,56.832 83.465,44.697 C86.830,32.583 91.592,22.790 97.749,15.611 C103.905,8.438 110.949,4.367 118.881,3.841 C126.951,3.298 134.065,6.400 140.221,12.916 C146.378,19.436 151.116,29.008 154.436,41.408 C157.757,53.818 159.417,68.146 159.417,84.447 C159.417,87.968 159.417,91.489 159.417,95.011 C159.417,111.389 157.757,125.694 154.436,137.994 C151.116,150.288 146.412,159.763 140.325,166.242 ZM146.205,84.132 C146.205,64.211 143.806,48.878 139.011,38.211 C134.214,27.554 127.504,22.298 118.881,22.764 C110.487,23.218 103.881,29.146 99.063,39.930 C94.244,50.741 91.765,65.131 91.627,83.317 C91.627,87.276 91.627,91.234 91.627,95.192 C91.627,113.747 94.059,128.393 98.925,139.428 C103.790,150.439 110.487,156.392 119.020,156.724 C127.597,157.060 134.238,151.898 138.941,141.467 C143.645,131.033 146.066,116.061 146.205,96.598 C146.205,92.443 146.205,88.288 146.205,84.132 ZM35.920,92.196 C43.305,94.670 49.083,97.841 53.254,101.474 C57.425,105.108 60.517,109.516 62.531,114.592 C64.546,119.667 65.553,125.678 65.553,132.491 C65.553,143.354 62.745,151.765 57.130,156.991 C51.515,162.232 44.007,163.323 34.608,160.360 C28.504,158.447 22.807,154.901 17.518,150.258 C12.228,145.606 8.149,140.548 5.281,135.258 C2.412,129.951 0.978,124.817 0.978,119.404 C4.904,120.100 8.831,120.759 12.757,121.381 C12.757,127.584 14.741,132.891 18.708,137.682 C22.676,142.445 27.975,145.970 34.608,147.616 C40.792,149.149 45.533,148.447 48.829,145.466 C52.125,142.494 53.773,137.719 53.773,131.408 C53.773,125.095 52.247,120.064 49.195,116.482 C46.144,112.898 40.609,109.295 32.594,105.998 C22.543,101.877 15.229,97.634 10.652,93.117 C6.074,88.564 3.785,83.384 3.785,76.744 C3.785,69.248 6.582,62.281 12.177,55.022 C17.772,47.819 25.045,42.045 33.998,39.129 C40.101,37.147 45.543,37.179 50.324,39.386 C55.105,41.589 58.808,45.646 61.433,51.401 C64.057,57.156 65.370,63.879 65.370,71.298 C61.443,71.649 57.516,72.031 53.590,72.447 C53.590,64.640 51.881,58.707 48.463,54.980 C45.045,51.242 40.223,50.223 33.998,51.832 C28.219,53.324 23.713,56.283 20.478,60.254 C17.243,64.246 15.626,68.789 15.626,74.130 C15.626,78.418 17.161,81.777 20.234,84.517 C23.306,87.249 28.535,89.719 35.920,92.196 Z"/>
</svg>